<svg width="24" height="24" viewBox="0 0 24 24" fill="none" xmlns="http://www.w3.org/2000/svg">
<g clip-path="url(#clip0_125_12207)">
<path d="M23.6409 14.91C22.037 21.3247 15.5338 25.245 9.08976 23.6411C2.67501 22.0372 -1.24524 15.534 0.358634 9.09C1.96251 2.67525 8.46576 -1.245 14.9098 0.358871C21.3245 1.96275 25.2448 8.46599 23.6409 14.91Z" fill="#F7931A"/>
<path d="M17.2862 10.2776C17.5239 8.67413 16.3063 7.81276 14.6432 7.24876L15.1775 5.08126L13.871 4.75501L13.3367 6.86363C12.9804 6.77438 12.6242 6.68551 12.2679 6.62589L12.8023 4.51726L11.4958 4.19101L10.9614 6.35851C10.6644 6.29926 10.397 6.23963 10.13 6.15076L8.31878 5.70526L7.96253 7.10101L8.91278 7.33876C9.44716 7.45763 9.53641 7.81388 9.53641 8.11126L8.91166 10.575C8.94166 10.575 9.00091 10.605 9.06016 10.605C9.03016 10.605 8.97091 10.575 8.91166 10.575L8.05028 14.0198C7.99103 14.1683 7.81253 14.4323 7.45628 14.346C7.45628 14.376 6.50603 14.1083 6.50603 14.1083L5.85278 15.6233L7.57516 16.0358C7.90141 16.125 8.19878 16.2139 8.52541 16.2735L7.99103 18.471L9.29753 18.7973L9.83191 16.6298L10.8752 16.9013L10.3408 19.0688L11.6473 19.395L12.1817 17.1975C14.4384 17.61 16.1015 17.4649 16.8144 15.4163C17.3788 13.7831 16.7844 12.8288 15.5968 12.2089C16.4878 12.0308 17.1118 11.4664 17.2895 10.2788L17.2862 10.2776ZM14.2869 14.5238C13.8744 16.1569 11.1392 15.2663 10.2482 15.0581L10.9607 12.1481C11.8517 12.3559 14.7024 12.8014 14.2869 14.5238ZM14.6994 10.2773C14.3432 11.7623 12.0268 11.0198 11.2843 10.8116L11.9375 8.16863C12.68 8.37639 15.0853 8.70301 14.6994 10.2773Z" fill="white"/>
</g>
<defs>
<clipPath id="clip0_125_12207">
<rect width="24" height="24" fill="white"/>
</clipPath>
</defs>
</svg>
