<svg width="24" height="24" viewBox="0 0 24 24" fill="none" xmlns="http://www.w3.org/2000/svg">
<g clip-path="url(#clip0_125_12237)">
<path d="M12.0001 23.8033C18.5188 23.8033 23.8033 18.5188 23.8033 12C23.8033 5.48122 18.5188 0.196716 12.0001 0.196716C5.48129 0.196716 0.196777 5.48122 0.196777 12C0.196777 18.5188 5.48129 23.8033 12.0001 23.8033Z" fill="white" stroke="#FFCE45" stroke-width="0.393443" stroke-miterlimit="10"/>
<path d="M12.0002 2.76201L21.0419 11.8037L12.0002 20.8454L2.9585 11.8037L12.0002 2.76201Z" fill="#FFCE45"/>
<path d="M12.0001 14.7541L2.95093 11.8033L12.0001 2.76173L21.0493 11.8033L12.0001 14.7541Z" fill="#FEBE44"/>
<path d="M6.09839 11.2131H10.2295L12 9.2459L13.9672 11.2131H18.0984L12 4.62314L6.09839 11.2131Z" fill="white"/>
<path opacity="0.42" d="M12 20.8448V2.76173L21.0415 11.8033L12 20.8448Z" fill="#D9A547"/>
</g>
<defs>
<clipPath id="clip0_125_12237">
<rect width="24" height="24" fill="white"/>
</clipPath>
</defs>
</svg>
