<svg width="20" height="20" viewBox="0 0 20 20" fill="none" xmlns="http://www.w3.org/2000/svg">
<path d="M17.0836 8.74984V8.33317C17.0836 5.19047 17.0836 3.61913 16.1073 2.64281C15.131 1.6665 13.5597 1.6665 10.4169 1.6665H9.58366C6.44102 1.6665 4.86968 1.6665 3.89338 2.6428C2.91707 3.6191 2.91705 5.19044 2.91703 8.33311L2.91699 12.0832C2.91697 14.8227 2.91696 16.1925 3.67356 17.1144C3.81209 17.2833 3.96688 17.438 4.13568 17.5766C5.05763 18.3332 6.4274 18.3332 9.16691 18.3332" stroke="#F7F5EF" stroke-width="1.5" stroke-linecap="round" stroke-linejoin="round"/>
<path d="M6.25 5.8335H13.75" stroke="#F7F5EF" stroke-width="1.5" stroke-linecap="round" stroke-linejoin="round"/>
<path d="M6.25 10H11.25" stroke="#F7F5EF" stroke-width="1.5" stroke-linecap="round" stroke-linejoin="round"/>
<path d="M17.083 16.6665V14.1665C17.083 12.9753 15.9638 11.6665 14.583 11.6665C13.2023 11.6665 12.083 12.9753 12.083 14.1665V17.0832C12.083 17.7735 12.6427 18.3332 13.333 18.3332C14.0233 18.3332 14.583 17.7735 14.583 17.0832V14.1665" stroke="#F7F5EF" stroke-width="1.5" stroke-linecap="round" stroke-linejoin="round"/>
</svg>
