<svg width="159" height="50" viewBox="0 0 159 50" fill="none" xmlns="http://www.w3.org/2000/svg">
<g opacity="0.6">
<mask id="mask0_141_11395" style="mask-type:luminance" maskUnits="userSpaceOnUse" x="0" y="18" width="32" height="17">
<path d="M0.524414 18.4867H31.2171V34.5359H0.524414V18.4867Z" fill="white"/>
</mask>
<g mask="url(#mask0_141_11395)">
<path d="M15.8738 18.4867L0.524414 25.4675L15.8738 34.5359L31.2171 25.4675L15.8738 18.4867Z" fill="#A1A1A1"/>
</g>
</g>
<g opacity="0.45">
<mask id="mask1_141_11395" style="mask-type:luminance" maskUnits="userSpaceOnUse" x="0" y="0" width="16" height="35">
<path d="M0.524414 0H15.8738V34.536H0.524414V0Z" fill="white"/>
</mask>
<g mask="url(#mask1_141_11395)">
<path d="M0.524414 25.4676L15.8738 34.536V0L0.524414 25.4676Z" fill="#A1A1A1"/>
</g>
</g>
<g opacity="0.8">
<mask id="mask2_141_11395" style="mask-type:luminance" maskUnits="userSpaceOnUse" x="15" y="-1" width="17" height="36">
<path d="M15.874 -0.00012207H31.2234V34.5359H15.874V-0.00012207Z" fill="white"/>
</mask>
<g mask="url(#mask2_141_11395)">
<path d="M15.874 -0.00012207V34.5359L31.2173 25.4675L15.874 -0.00012207Z" fill="#A1A1A1"/>
</g>
</g>
<g opacity="0.45">
<mask id="mask3_141_11395" style="mask-type:luminance" maskUnits="userSpaceOnUse" x="0" y="28" width="16" height="22">
<path d="M0.524414 28.3756H15.8738V49.9998H0.524414V28.3756Z" fill="white"/>
</mask>
<g mask="url(#mask3_141_11395)">
<path d="M0.524414 28.3756L15.8738 49.9998V37.444L0.524414 28.3756Z" fill="#A1A1A1"/>
</g>
</g>
<g opacity="0.8">
<mask id="mask4_141_11395" style="mask-type:luminance" maskUnits="userSpaceOnUse" x="15" y="28" width="17" height="22">
<path d="M15.874 28.3756H31.2294V49.9998H15.874V28.3756Z" fill="white"/>
</mask>
<g mask="url(#mask4_141_11395)">
<path d="M15.874 37.444V49.9998L31.2294 28.3756L15.874 37.444Z" fill="#A1A1A1"/>
</g>
</g>
<mask id="path-11-outside-1_141_11395" maskUnits="userSpaceOnUse" x="38.6553" y="13.7852" width="120" height="23" fill="black">
<rect fill="white" x="38.6553" y="13.7852" width="120" height="23"/>
<path d="M50.2743 29.4286C50.2743 29.688 50.0571 29.8992 49.7977 29.8992H40.6146C40.8439 32.1678 42.5514 34.2373 44.9527 34.2373C46.5939 34.2373 47.8126 33.6098 48.7297 32.3005C48.8625 32.1195 49.0616 32.0049 49.315 32.1135C49.4538 32.1738 49.5503 32.3005 49.5744 32.4453C49.5986 32.5962 49.5563 32.6807 49.5141 32.7651C48.591 34.3761 46.7507 35.1665 44.9467 35.1665C41.8575 35.1665 39.6553 32.4031 39.6553 29.4467C39.6553 26.4902 41.8575 23.7269 44.9467 23.7269C48.0359 23.7208 50.2683 26.4782 50.2743 29.4286ZM49.2908 28.9821C49.0917 26.7135 47.3541 24.644 44.9527 24.644C42.5514 24.644 40.8439 26.7135 40.6146 28.9821H49.2908ZM61.4183 23.9501C61.6838 23.9501 61.8768 24.1794 61.8768 24.4087C61.8768 24.6741 61.6777 24.8672 61.4183 24.8672H58.9566V34.5269C58.9566 34.7562 58.7575 34.9855 58.498 34.9855C58.2326 34.9855 58.0395 34.7562 58.0395 34.5269V24.8672H55.6743C55.4089 24.8672 55.2158 24.6681 55.2158 24.4087C55.2158 24.1794 55.4149 23.9501 55.6743 23.9501H58.0395V20.4145C58.0395 20.1912 58.1903 19.9861 58.4075 19.9499C58.7153 19.9016 58.9566 20.1128 58.9566 20.4024V23.9501H61.4183ZM76.4358 28.6201V34.4726C76.4358 34.7381 76.2065 34.9312 75.9772 34.9312C75.7118 34.9312 75.5187 34.7321 75.5187 34.4726V28.6201C75.5187 26.6471 74.4025 24.6741 72.2002 24.6741C69.3765 24.6741 68.1577 27.1419 68.3207 29.6699C68.3207 29.7363 68.3508 30.0319 68.3508 30.0621V34.4545C68.3508 34.6778 68.2 34.8829 67.9828 34.9191C67.6751 34.9674 67.4337 34.7562 67.4337 34.4666V15.2437C67.4337 15.0144 67.6328 14.7852 67.8923 14.7852C68.1577 14.7852 68.3508 15.0144 68.3508 15.2437V26.1222C69.1412 24.7103 70.5531 23.757 72.1942 23.757C74.8912 23.757 76.4358 26.1222 76.4358 28.6201ZM92.9013 29.4286C92.9013 29.688 92.6841 29.8992 92.4247 29.8992H83.2356C83.4649 32.1678 85.1723 34.2373 87.5737 34.2373C89.2148 34.2373 90.4336 33.6098 91.3507 32.3005C91.4834 32.1195 91.6825 32.0049 91.936 32.1135C92.0747 32.1738 92.1713 32.3005 92.1954 32.4453C92.2195 32.5962 92.1773 32.6807 92.1351 32.7651C91.2119 34.3761 89.3717 35.1665 87.5677 35.1665C84.4785 35.1665 82.2762 32.4031 82.2762 29.4467C82.2762 26.4902 84.4785 23.7269 87.5677 23.7269C90.6629 23.7208 92.8953 26.4782 92.9013 29.4286ZM91.9118 28.9821C91.7127 26.7135 89.9751 24.644 87.5737 24.644C85.1723 24.644 83.4649 26.7135 83.2356 28.9821H91.9118ZM104.172 24.3785C104.172 24.6741 104.009 24.837 103.744 24.8732C101.047 25.2654 99.8339 27.4677 99.8339 30.0319V34.4243C99.8339 34.6476 99.683 34.8527 99.4658 34.8889C99.1581 34.9372 98.9168 34.726 98.9168 34.4364V24.4268C98.9168 24.2035 99.0676 23.9984 99.2848 23.9622C99.5925 23.9139 99.8339 24.1251 99.8339 24.4147V26.454C100.588 25.1749 102.102 23.9561 103.677 23.9561C103.907 23.9501 104.172 24.1191 104.172 24.3785ZM119.256 29.4286C119.256 29.688 119.039 29.8992 118.779 29.8992H109.596C109.825 32.1678 111.533 34.2373 113.934 34.2373C115.575 34.2373 116.794 33.6098 117.711 32.3005C117.844 32.1195 118.043 32.0049 118.297 32.1135C118.435 32.1738 118.532 32.3005 118.556 32.4453C118.58 32.5962 118.538 32.6807 118.496 32.7651C117.572 34.3761 115.732 35.1665 113.928 35.1665C110.839 35.1665 108.637 32.4031 108.637 29.4467C108.637 26.4902 110.839 23.7269 113.928 23.7269C117.017 23.7208 119.25 26.4782 119.256 29.4286ZM118.272 28.9821C118.073 26.7135 116.336 24.644 113.934 24.644C111.533 24.644 109.825 26.7135 109.596 28.9821H118.272ZM134.08 24.4931V34.5269C134.08 34.7924 133.851 34.9855 133.622 34.9855C133.356 34.9855 133.163 34.7864 133.163 34.5269V32.6203C132.409 34.1347 131.057 35.2147 129.35 35.2147C126.623 35.2147 125.108 32.8496 125.108 30.3517V24.469C125.108 24.2397 125.308 24.0104 125.567 24.0104C125.832 24.0104 126.025 24.2397 126.025 24.469V30.3517C126.025 32.3247 127.142 34.2976 129.344 34.2976C132.433 34.2976 133.157 31.4076 133.157 28.2158V24.469C133.157 24.2035 133.423 23.932 133.748 24.0286C133.948 24.0949 134.08 24.288 134.08 24.4931ZM157.309 28.5839V34.4666C157.309 34.7321 157.08 34.9251 156.851 34.9251C156.585 34.9251 156.392 34.726 156.392 34.4666V28.5839C156.392 26.6109 155.276 24.6741 153.074 24.6741C150.311 24.6741 149.261 27.6306 149.261 29.9294V34.4666C149.261 34.7321 149.031 34.9251 148.802 34.9251C148.537 34.9251 148.344 34.726 148.344 34.4666V28.5839C148.344 26.6109 147.227 24.6741 145.025 24.6741C142.232 24.6741 141.079 26.8764 141.182 29.8027C141.182 29.869 141.212 30.0018 141.182 30.0319V34.4545C141.182 34.6778 141.031 34.8829 140.808 34.9191C140.5 34.9674 140.259 34.7562 140.259 34.4666V24.4268C140.259 24.2035 140.409 23.9984 140.627 23.9622C140.934 23.9139 141.176 24.1251 141.176 24.4147V26.092C141.966 24.6802 143.378 23.757 145.019 23.757C146.889 23.757 148.338 24.9396 148.929 26.6833C149.683 24.9758 151.161 23.757 153.068 23.757C155.765 23.757 157.309 26.086 157.309 28.5839Z"/>
</mask>
<path d="M50.2743 29.4286C50.2743 29.688 50.0571 29.8992 49.7977 29.8992H40.6146C40.8439 32.1678 42.5514 34.2373 44.9527 34.2373C46.5939 34.2373 47.8126 33.6098 48.7297 32.3005C48.8625 32.1195 49.0616 32.0049 49.315 32.1135C49.4538 32.1738 49.5503 32.3005 49.5744 32.4453C49.5986 32.5962 49.5563 32.6807 49.5141 32.7651C48.591 34.3761 46.7507 35.1665 44.9467 35.1665C41.8575 35.1665 39.6553 32.4031 39.6553 29.4467C39.6553 26.4902 41.8575 23.7269 44.9467 23.7269C48.0359 23.7208 50.2683 26.4782 50.2743 29.4286ZM49.2908 28.9821C49.0917 26.7135 47.3541 24.644 44.9527 24.644C42.5514 24.644 40.8439 26.7135 40.6146 28.9821H49.2908ZM61.4183 23.9501C61.6838 23.9501 61.8768 24.1794 61.8768 24.4087C61.8768 24.6741 61.6777 24.8672 61.4183 24.8672H58.9566V34.5269C58.9566 34.7562 58.7575 34.9855 58.498 34.9855C58.2326 34.9855 58.0395 34.7562 58.0395 34.5269V24.8672H55.6743C55.4089 24.8672 55.2158 24.6681 55.2158 24.4087C55.2158 24.1794 55.4149 23.9501 55.6743 23.9501H58.0395V20.4145C58.0395 20.1912 58.1903 19.9861 58.4075 19.9499C58.7153 19.9016 58.9566 20.1128 58.9566 20.4024V23.9501H61.4183ZM76.4358 28.6201V34.4726C76.4358 34.7381 76.2065 34.9312 75.9772 34.9312C75.7118 34.9312 75.5187 34.7321 75.5187 34.4726V28.6201C75.5187 26.6471 74.4025 24.6741 72.2002 24.6741C69.3765 24.6741 68.1577 27.1419 68.3207 29.6699C68.3207 29.7363 68.3508 30.0319 68.3508 30.0621V34.4545C68.3508 34.6778 68.2 34.8829 67.9828 34.9191C67.6751 34.9674 67.4337 34.7562 67.4337 34.4666V15.2437C67.4337 15.0144 67.6328 14.7852 67.8923 14.7852C68.1577 14.7852 68.3508 15.0144 68.3508 15.2437V26.1222C69.1412 24.7103 70.5531 23.757 72.1942 23.757C74.8912 23.757 76.4358 26.1222 76.4358 28.6201ZM92.9013 29.4286C92.9013 29.688 92.6841 29.8992 92.4247 29.8992H83.2356C83.4649 32.1678 85.1723 34.2373 87.5737 34.2373C89.2148 34.2373 90.4336 33.6098 91.3507 32.3005C91.4834 32.1195 91.6825 32.0049 91.936 32.1135C92.0747 32.1738 92.1713 32.3005 92.1954 32.4453C92.2195 32.5962 92.1773 32.6807 92.1351 32.7651C91.2119 34.3761 89.3717 35.1665 87.5677 35.1665C84.4785 35.1665 82.2762 32.4031 82.2762 29.4467C82.2762 26.4902 84.4785 23.7269 87.5677 23.7269C90.6629 23.7208 92.8953 26.4782 92.9013 29.4286ZM91.9118 28.9821C91.7127 26.7135 89.9751 24.644 87.5737 24.644C85.1723 24.644 83.4649 26.7135 83.2356 28.9821H91.9118ZM104.172 24.3785C104.172 24.6741 104.009 24.837 103.744 24.8732C101.047 25.2654 99.8339 27.4677 99.8339 30.0319V34.4243C99.8339 34.6476 99.683 34.8527 99.4658 34.8889C99.1581 34.9372 98.9168 34.726 98.9168 34.4364V24.4268C98.9168 24.2035 99.0676 23.9984 99.2848 23.9622C99.5925 23.9139 99.8339 24.1251 99.8339 24.4147V26.454C100.588 25.1749 102.102 23.9561 103.677 23.9561C103.907 23.9501 104.172 24.1191 104.172 24.3785ZM119.256 29.4286C119.256 29.688 119.039 29.8992 118.779 29.8992H109.596C109.825 32.1678 111.533 34.2373 113.934 34.2373C115.575 34.2373 116.794 33.6098 117.711 32.3005C117.844 32.1195 118.043 32.0049 118.297 32.1135C118.435 32.1738 118.532 32.3005 118.556 32.4453C118.58 32.5962 118.538 32.6807 118.496 32.7651C117.572 34.3761 115.732 35.1665 113.928 35.1665C110.839 35.1665 108.637 32.4031 108.637 29.4467C108.637 26.4902 110.839 23.7269 113.928 23.7269C117.017 23.7208 119.25 26.4782 119.256 29.4286ZM118.272 28.9821C118.073 26.7135 116.336 24.644 113.934 24.644C111.533 24.644 109.825 26.7135 109.596 28.9821H118.272ZM134.08 24.4931V34.5269C134.08 34.7924 133.851 34.9855 133.622 34.9855C133.356 34.9855 133.163 34.7864 133.163 34.5269V32.6203C132.409 34.1347 131.057 35.2147 129.35 35.2147C126.623 35.2147 125.108 32.8496 125.108 30.3517V24.469C125.108 24.2397 125.308 24.0104 125.567 24.0104C125.832 24.0104 126.025 24.2397 126.025 24.469V30.3517C126.025 32.3247 127.142 34.2976 129.344 34.2976C132.433 34.2976 133.157 31.4076 133.157 28.2158V24.469C133.157 24.2035 133.423 23.932 133.748 24.0286C133.948 24.0949 134.08 24.288 134.08 24.4931ZM157.309 28.5839V34.4666C157.309 34.7321 157.08 34.9251 156.851 34.9251C156.585 34.9251 156.392 34.726 156.392 34.4666V28.5839C156.392 26.6109 155.276 24.6741 153.074 24.6741C150.311 24.6741 149.261 27.6306 149.261 29.9294V34.4666C149.261 34.7321 149.031 34.9251 148.802 34.9251C148.537 34.9251 148.344 34.726 148.344 34.4666V28.5839C148.344 26.6109 147.227 24.6741 145.025 24.6741C142.232 24.6741 141.079 26.8764 141.182 29.8027C141.182 29.869 141.212 30.0018 141.182 30.0319V34.4545C141.182 34.6778 141.031 34.8829 140.808 34.9191C140.5 34.9674 140.259 34.7562 140.259 34.4666V24.4268C140.259 24.2035 140.409 23.9984 140.627 23.9622C140.934 23.9139 141.176 24.1251 141.176 24.4147V26.092C141.966 24.6802 143.378 23.757 145.019 23.757C146.889 23.757 148.338 24.9396 148.929 26.6833C149.683 24.9758 151.161 23.757 153.068 23.757C155.765 23.757 157.309 26.086 157.309 28.5839Z" fill="#A1A1A1"/>
<path d="M50.2743 29.4286C50.2743 29.688 50.0571 29.8992 49.7977 29.8992H40.6146C40.8439 32.1678 42.5514 34.2373 44.9527 34.2373C46.5939 34.2373 47.8126 33.6098 48.7297 32.3005C48.8625 32.1195 49.0616 32.0049 49.315 32.1135C49.4538 32.1738 49.5503 32.3005 49.5744 32.4453C49.5986 32.5962 49.5563 32.6807 49.5141 32.7651C48.591 34.3761 46.7507 35.1665 44.9467 35.1665C41.8575 35.1665 39.6553 32.4031 39.6553 29.4467C39.6553 26.4902 41.8575 23.7269 44.9467 23.7269C48.0359 23.7208 50.2683 26.4782 50.2743 29.4286ZM49.2908 28.9821C49.0917 26.7135 47.3541 24.644 44.9527 24.644C42.5514 24.644 40.8439 26.7135 40.6146 28.9821H49.2908ZM61.4183 23.9501C61.6838 23.9501 61.8768 24.1794 61.8768 24.4087C61.8768 24.6741 61.6777 24.8672 61.4183 24.8672H58.9566V34.5269C58.9566 34.7562 58.7575 34.9855 58.498 34.9855C58.2326 34.9855 58.0395 34.7562 58.0395 34.5269V24.8672H55.6743C55.4089 24.8672 55.2158 24.6681 55.2158 24.4087C55.2158 24.1794 55.4149 23.9501 55.6743 23.9501H58.0395V20.4145C58.0395 20.1912 58.1903 19.9861 58.4075 19.9499C58.7153 19.9016 58.9566 20.1128 58.9566 20.4024V23.9501H61.4183ZM76.4358 28.6201V34.4726C76.4358 34.7381 76.2065 34.9312 75.9772 34.9312C75.7118 34.9312 75.5187 34.7321 75.5187 34.4726V28.6201C75.5187 26.6471 74.4025 24.6741 72.2002 24.6741C69.3765 24.6741 68.1577 27.1419 68.3207 29.6699C68.3207 29.7363 68.3508 30.0319 68.3508 30.0621V34.4545C68.3508 34.6778 68.2 34.8829 67.9828 34.9191C67.6751 34.9674 67.4337 34.7562 67.4337 34.4666V15.2437C67.4337 15.0144 67.6328 14.7852 67.8923 14.7852C68.1577 14.7852 68.3508 15.0144 68.3508 15.2437V26.1222C69.1412 24.7103 70.5531 23.757 72.1942 23.757C74.8912 23.757 76.4358 26.1222 76.4358 28.6201ZM92.9013 29.4286C92.9013 29.688 92.6841 29.8992 92.4247 29.8992H83.2356C83.4649 32.1678 85.1723 34.2373 87.5737 34.2373C89.2148 34.2373 90.4336 33.6098 91.3507 32.3005C91.4834 32.1195 91.6825 32.0049 91.936 32.1135C92.0747 32.1738 92.1713 32.3005 92.1954 32.4453C92.2195 32.5962 92.1773 32.6807 92.1351 32.7651C91.2119 34.3761 89.3717 35.1665 87.5677 35.1665C84.4785 35.1665 82.2762 32.4031 82.2762 29.4467C82.2762 26.4902 84.4785 23.7269 87.5677 23.7269C90.6629 23.7208 92.8953 26.4782 92.9013 29.4286ZM91.9118 28.9821C91.7127 26.7135 89.9751 24.644 87.5737 24.644C85.1723 24.644 83.4649 26.7135 83.2356 28.9821H91.9118ZM104.172 24.3785C104.172 24.6741 104.009 24.837 103.744 24.8732C101.047 25.2654 99.8339 27.4677 99.8339 30.0319V34.4243C99.8339 34.6476 99.683 34.8527 99.4658 34.8889C99.1581 34.9372 98.9168 34.726 98.9168 34.4364V24.4268C98.9168 24.2035 99.0676 23.9984 99.2848 23.9622C99.5925 23.9139 99.8339 24.1251 99.8339 24.4147V26.454C100.588 25.1749 102.102 23.9561 103.677 23.9561C103.907 23.9501 104.172 24.1191 104.172 24.3785ZM119.256 29.4286C119.256 29.688 119.039 29.8992 118.779 29.8992H109.596C109.825 32.1678 111.533 34.2373 113.934 34.2373C115.575 34.2373 116.794 33.6098 117.711 32.3005C117.844 32.1195 118.043 32.0049 118.297 32.1135C118.435 32.1738 118.532 32.3005 118.556 32.4453C118.58 32.5962 118.538 32.6807 118.496 32.7651C117.572 34.3761 115.732 35.1665 113.928 35.1665C110.839 35.1665 108.637 32.4031 108.637 29.4467C108.637 26.4902 110.839 23.7269 113.928 23.7269C117.017 23.7208 119.25 26.4782 119.256 29.4286ZM118.272 28.9821C118.073 26.7135 116.336 24.644 113.934 24.644C111.533 24.644 109.825 26.7135 109.596 28.9821H118.272ZM134.08 24.4931V34.5269C134.08 34.7924 133.851 34.9855 133.622 34.9855C133.356 34.9855 133.163 34.7864 133.163 34.5269V32.6203C132.409 34.1347 131.057 35.2147 129.35 35.2147C126.623 35.2147 125.108 32.8496 125.108 30.3517V24.469C125.108 24.2397 125.308 24.0104 125.567 24.0104C125.832 24.0104 126.025 24.2397 126.025 24.469V30.3517C126.025 32.3247 127.142 34.2976 129.344 34.2976C132.433 34.2976 133.157 31.4076 133.157 28.2158V24.469C133.157 24.2035 133.423 23.932 133.748 24.0286C133.948 24.0949 134.08 24.288 134.08 24.4931ZM157.309 28.5839V34.4666C157.309 34.7321 157.08 34.9251 156.851 34.9251C156.585 34.9251 156.392 34.726 156.392 34.4666V28.5839C156.392 26.6109 155.276 24.6741 153.074 24.6741C150.311 24.6741 149.261 27.6306 149.261 29.9294V34.4666C149.261 34.7321 149.031 34.9251 148.802 34.9251C148.537 34.9251 148.344 34.726 148.344 34.4666V28.5839C148.344 26.6109 147.227 24.6741 145.025 24.6741C142.232 24.6741 141.079 26.8764 141.182 29.8027C141.182 29.869 141.212 30.0018 141.182 30.0319V34.4545C141.182 34.6778 141.031 34.8829 140.808 34.9191C140.5 34.9674 140.259 34.7562 140.259 34.4666V24.4268C140.259 24.2035 140.409 23.9984 140.627 23.9622C140.934 23.9139 141.176 24.1251 141.176 24.4147V26.092C141.966 24.6802 143.378 23.757 145.019 23.757C146.889 23.757 148.338 24.9396 148.929 26.6833C149.683 24.9758 151.161 23.757 153.068 23.757C155.765 23.757 157.309 26.086 157.309 28.5839Z" stroke="#A1A1A1" stroke-width="2" mask="url(#path-11-outside-1_141_11395)"/>
</svg>
