<svg width="20" height="18" viewBox="0 0 20 18" fill="none" xmlns="http://www.w3.org/2000/svg">
<path d="M9.27297 10.2953C9.49745 10.0035 9.44284 9.58493 9.15099 9.36045C8.85914 9.13598 8.44058 9.19059 8.21611 9.48244L9.27297 10.2953ZM7.50541 11.4999L8.03382 11.9064L8.03385 11.9064L7.50541 11.4999ZM7.68434 11.9669L7.82274 11.3148L7.82274 11.3148L7.68434 11.9669ZM8.98232 12.2424L8.84392 12.8945L8.844 12.8946L8.98232 12.2424ZM9.13983 12.7343L9.6204 13.1964L9.62043 13.1963L9.13983 12.7343ZM7.12186 13.8713C6.86667 14.1367 6.87497 14.5587 7.14038 14.8139C7.40579 15.0691 7.82782 15.0608 8.08301 14.7954L7.12186 13.8713ZM3.00001 6.55556C2.63182 6.55556 2.33334 6.85403 2.33334 7.22222C2.33334 7.59041 2.63182 7.88889 3.00001 7.88889V6.55556ZM13.6667 7.88889C14.0349 7.88889 14.3333 7.59041 14.3333 7.22222C14.3333 6.85403 14.0349 6.55556 13.6667 6.55556V7.88889ZM3.00001 17H2.33334V17.6667H3.00001V17ZM13.6667 17V17.6667H14.3333V17H13.6667ZM1.22223 16.3333C0.854039 16.3333 0.555562 16.6318 0.555562 17C0.555562 17.3682 0.854039 17.6667 1.22223 17.6667V16.3333ZM15.4445 17.6667C15.8126 17.6667 16.1111 17.3682 16.1111 17C16.1111 16.6318 15.8126 16.3333 15.4445 16.3333V17.6667ZM13.6667 10.1111C13.2985 10.1111 13 10.4096 13 10.7778C13 11.146 13.2985 11.4444 13.6667 11.4444V10.1111ZM15.6745 10.8081L15.5017 11.452L15.5021 11.4521L15.6745 10.8081ZM16.303 11.4366L15.659 11.609L15.6591 11.6094L16.303 11.4366ZM18.4029 5.4376L18.9576 5.06784L18.9576 5.0678L18.4029 5.4376ZM17.7153 4.40627L17.1606 4.77603L17.1606 4.77607L17.7153 4.40627ZM16.3333 3C15.9652 3 15.6667 3.29848 15.6667 3.66667C15.6667 4.03486 15.9652 4.33333 16.3333 4.33333V3ZM8.21611 9.48244L6.97698 11.0935L8.03385 11.9064L9.27297 10.2953L8.21611 9.48244ZM6.977 11.0934C6.53202 11.6719 6.87054 12.4757 7.54594 12.6191L7.82274 11.3148C8.06505 11.3662 8.21322 11.6732 8.03382 11.9064L6.977 11.0934ZM7.54593 12.6191L8.84392 12.8945L9.12072 11.5903L7.82274 11.3148L7.54593 12.6191ZM8.844 12.8946C8.58439 12.8395 8.44328 12.4969 8.65923 12.2723L9.62043 13.1963C10.1592 12.6359 9.84212 11.7433 9.12063 11.5902L8.844 12.8946ZM8.65926 12.2723L7.12186 13.8713L8.08301 14.7954L9.6204 13.1964L8.65926 12.2723ZM3.00001 7.88889H13.6667V6.55556H3.00001V7.88889ZM3.66667 17V6.33333H2.33334V17H3.66667ZM3.66667 6.33333C3.66667 5.05741 3.66809 4.16753 3.75836 3.49611C3.84605 2.84386 4.00645 2.49847 4.25246 2.25245L3.30965 1.30964C2.77461 1.84468 2.54449 2.51835 2.43692 3.31844C2.33192 4.09936 2.33334 5.0951 2.33334 6.33333H3.66667ZM4.25246 2.25245C4.49847 2.00644 4.84387 1.84604 5.49611 1.75835C6.16754 1.66808 7.05741 1.66667 8.33334 1.66667V0.333333C7.09511 0.333333 6.09937 0.331917 5.31845 0.436909C4.51835 0.544479 3.84469 0.774607 3.30965 1.30964L4.25246 2.25245ZM8.33334 1.66667C9.60925 1.66667 10.4991 1.66808 11.1705 1.75835C11.8228 1.84604 12.1682 2.00644 12.4142 2.25246L13.357 1.30964C12.822 0.774608 12.1483 0.54448 11.3482 0.436909C10.5673 0.331917 9.57156 0.333333 8.33334 0.333333V1.66667ZM12.4142 2.25246C12.6602 2.49847 12.8206 2.84387 12.9083 3.49611C12.9986 4.16753 13 5.05741 13 6.33333H14.3333C14.3333 5.0951 14.3348 4.09936 14.2298 3.31844C14.1222 2.51834 13.8921 1.84468 13.357 1.30964L12.4142 2.25246ZM13 6.33333V17H14.3333V6.33333H13ZM13.6667 16.3333H3.00001V17.6667H13.6667V16.3333ZM1.22223 17.6667H15.4445V16.3333H1.22223V17.6667ZM13.6667 11.4444H15.1482V10.1111H13.6667V11.4444ZM15.1482 11.4444C15.292 11.4444 15.3776 11.4446 15.4419 11.4475C15.5026 11.4503 15.5114 11.4546 15.5017 11.452L15.8472 10.1642C15.628 10.1054 15.3807 10.1111 15.1482 10.1111V11.4444ZM15.5021 11.4521C15.5787 11.4726 15.6385 11.5325 15.659 11.609L16.947 11.2642C16.8033 10.7273 16.3838 10.3079 15.8469 10.1641L15.5021 11.4521ZM15.6591 11.6094C15.6565 11.5997 15.6608 11.6085 15.6636 11.6692C15.6665 11.7335 15.6667 11.8191 15.6667 11.9629H17C17 11.7304 17.0057 11.4831 16.9469 11.2639L15.6591 11.6094ZM15.6667 11.9629V13H17V11.9629H15.6667ZM15.6667 13C15.6667 14.1045 16.5621 15 17.6667 15V13.6667C17.2985 13.6667 17 13.3682 17 13H15.6667ZM17.6667 15C18.7712 15 19.6667 14.1045 19.6667 13H18.3333C18.3333 13.3682 18.0348 13.6667 17.6667 13.6667V15ZM19.6667 13V7.40987H18.3333V13H19.6667ZM19.6667 7.40987C19.6667 6.9144 19.6733 6.53139 19.5618 6.16327L18.2857 6.54958C18.3268 6.68534 18.3333 6.83667 18.3333 7.40987H19.6667ZM19.5618 6.16327C19.4504 5.7951 19.2323 5.47995 18.9576 5.06784L17.8481 5.80736C18.1661 6.28444 18.2446 6.41388 18.2857 6.54958L19.5618 6.16327ZM18.9576 5.0678L18.27 4.03647L17.1606 4.77607L17.8482 5.8074L18.9576 5.0678ZM18.27 4.0365C17.8384 3.38891 17.1115 3 16.3333 3V4.33333C16.6658 4.33333 16.9762 4.4995 17.1606 4.77603L18.27 4.0365Z" fill="#D98837"/>
</svg>
