<svg width="58" height="60" viewBox="0 0 58 60" fill="none" xmlns="http://www.w3.org/2000/svg">
<path d="M41.375 42.2685L40.1375 41.5498L38.1438 40.3998L37.3 39.9123C37.3438 40.2185 37.3813 40.506 37.4062 40.7685C37.4188 40.8998 37.4312 41.0248 37.4437 41.1435C37.4813 41.4998 37.4938 41.8935 37.4938 42.3123C37.4938 42.4998 37.4938 42.6873 37.4813 42.8748C37.4313 45.031 37.0625 46.8623 36.375 48.3685C36.05 49.0873 35.6687 49.7435 35.2312 50.3248C34.6812 51.0748 34.0438 51.706 33.3188 52.2248L29.5375 46.8498L27.55 45.6998V36.5685L23.2687 34.0935L18.0438 31.0748L13.625 28.5248V23.9623L15.7688 25.1998L17.8563 26.406L19.5875 27.406V20.556L23.9312 23.0685L24.2125 23.231L25.9438 24.231L27.55 25.156V14.7685C26.5875 13.8685 25.6188 13.0498 24.6375 12.3123C23.6625 11.581 22.6438 10.906 21.5813 10.2935C19.4813 9.08102 17.4688 8.27477 15.5437 7.88102C14.9812 7.76227 14.4187 7.68102 13.8687 7.63727C11.8313 7.46852 10.0063 7.73727 8.40625 8.44977L7.53125 8.88727C5.725 9.91852 4.29375 11.5123 3.25 13.6623C2.20625 15.8185 1.6875 18.4748 1.6875 21.6373C1.6875 24.7998 2.20625 28.006 3.25 31.3873C4.29375 34.7685 5.725 38.0185 7.53125 41.131C9.3375 44.2498 11.45 47.106 13.8687 49.6998C16.2937 52.2998 18.8625 54.381 21.5813 55.9498C24.3313 57.5373 26.9125 58.431 29.3125 58.6185C31.7188 58.806 33.825 58.3873 35.6313 57.356C37.4375 56.3248 38.8625 54.7248 39.9062 52.5498C39.975 52.406 40.0375 52.2623 40.0938 52.1185C41.0187 50.031 41.475 47.5248 41.475 44.606V43.4685C41.475 43.1248 41.4437 42.7248 41.375 42.2685ZM19.5875 50.1248C15.6437 47.2748 12.3375 43.3748 9.66875 38.431C7 33.481 5.6625 28.6498 5.6625 23.931C5.6625 23.2498 5.70625 22.5873 5.7875 21.9498C5.86875 21.3123 5.9625 20.681 6.0625 20.056L15.6125 36.5248V38.806L19.5875 45.6685V50.1248Z" fill="url(#paint0_linear_145_13331)" stroke="#A1A1A1" stroke-width="0.625"/>
<path d="M19.5876 45.6685V50.1248C15.6438 47.2748 12.3376 43.3748 9.66884 38.431C7.00009 33.481 5.6626 28.6498 5.6626 23.931C5.6626 23.2498 5.70635 22.5873 5.7876 21.9498C5.86885 21.3123 5.9626 20.681 6.0626 20.056L15.6126 36.5248V38.806L19.5876 45.6685Z" stroke="#A1A1A1" stroke-width="0.625"/>
<path d="M40.0498 38.5373L37.2998 39.9123C37.3436 40.2186 37.3811 40.5061 37.4061 40.7686L32.0873 43.4311L31.7311 43.6123L28.2623 45.3436L27.5498 45.6998V36.5686L29.7873 35.4498L33.9061 33.3936L40.0498 36.9373V38.5373Z" stroke="#A1A1A1" stroke-width="0.625"/>
<path d="M37.4936 42.3123C37.4936 42.4998 37.4936 42.6873 37.4811 42.8748L29.8123 46.7123L29.5373 46.8498L27.5498 45.6998L28.2623 45.3436L31.7311 43.6123L32.0873 43.4311L37.4061 40.7686C37.4186 40.8998 37.4311 41.0248 37.4436 41.1436C37.4811 41.4998 37.4936 41.8936 37.4936 42.3123Z" stroke="#A1A1A1" stroke-width="0.625"/>
<path d="M37.4813 42.881C37.4313 45.031 37.0626 46.8622 36.3751 48.3685C36.0501 49.0872 35.6688 49.7435 35.2313 50.3247C34.6813 51.0747 34.0438 51.706 33.3188 52.2247L29.5376 46.8497L29.8126 46.7122L37.4813 42.881Z" stroke="#A1A1A1" stroke-width="0.625"/>
<path d="M53.8748 36.0186L49.8998 38.0061L42.7311 41.5873L41.3748 42.2686L40.1373 41.5498L38.1436 40.3998L37.2998 39.9123L41.5373 37.7936L43.4623 38.9061L49.9873 35.6436L51.7248 34.7748L53.8748 36.0186Z" stroke="#A1A1A1" stroke-width="0.625"/>
<path d="M55.9629 21.2437V32.6562L51.7254 34.7749L49.9879 35.6437L43.4629 38.9062V27.4937L45.3629 26.5437L55.9629 21.2437Z" fill="url(#paint1_linear_145_13331)" stroke="#A1A1A1" stroke-width="0.625"/>
<path d="M33.9062 33.3936L29.7875 35.4498L27.55 36.5686L23.2688 34.0936L18.0437 31.0748L13.625 28.5248L16.4188 27.1248L17.8563 26.4061L19.5875 27.4061L19.9313 27.2311L24.9063 24.7436L25.9438 24.2311L27.55 25.1561L29.4625 24.1998L31.525 25.3936V32.0186L33.9062 33.3936Z" stroke="#A1A1A1" stroke-width="0.625"/>
<path d="M25.9437 24.2311L24.9062 24.7436L19.9312 27.2311L19.5874 27.4061V20.556L23.9312 23.0686L24.2124 23.231L25.9437 24.2311Z" stroke="#A1A1A1" stroke-width="0.625"/>
<path d="M17.8563 26.406L16.4188 27.1248L13.625 28.5248V23.9623L15.7688 25.1998L17.8563 26.406Z" stroke="#A1A1A1" stroke-width="0.625"/>
<path d="M33.5191 19.606V21.7497L32.0879 20.9247L31.5254 20.5997L32.0879 20.3185L33.5191 19.606Z" stroke="#A1A1A1" stroke-width="0.625"/>
<path d="M40.0498 8.51855V14.2373L35.7186 16.4061L34.9311 16.7998L34.6873 16.9186C33.9061 17.3623 33.5186 18.2123 33.5186 19.4686V19.6061L32.0873 20.3186L31.5248 20.5998V23.1686L29.4623 24.1998L27.5498 25.1561V14.7686L40.0498 8.51855Z" stroke="#A1A1A1" stroke-width="0.625"/>
<path d="M40.05 8.51862L27.55 14.7686C26.5875 13.8686 25.6188 13.0499 24.6375 12.3124C23.6625 11.5811 22.6438 10.9061 21.5813 10.2936C19.4813 9.08112 17.4688 8.27487 15.5438 7.88112C14.9813 7.76237 14.4187 7.68112 13.8687 7.63737C11.8312 7.46862 10.0062 7.73737 8.40625 8.44987L20.0313 2.63738C21.8375 1.60613 23.95 1.18738 26.3688 1.38738C28.7938 1.58738 31.3625 2.47488 34.0813 4.04363C35.1438 4.65613 36.1625 5.33113 37.1375 6.06238C38.1188 6.79987 39.0875 7.61862 40.05 8.51862Z" stroke="#A1A1A1" stroke-width="0.625"/>
<path d="M41.4754 26.3434V24.0622C41.4754 22.8872 41.1379 21.6747 40.4504 20.4247C40.4066 20.3372 40.3566 20.2497 40.3066 20.1622C40.0879 19.7872 39.8629 19.4434 39.6191 19.1247C39.3504 18.7684 39.0629 18.4434 38.7566 18.1559C38.4691 17.8809 38.1691 17.6372 37.8566 17.4309C37.7379 17.3434 37.6191 17.2684 37.4941 17.1997C37.0441 16.9434 36.6254 16.7747 36.2316 16.6997C35.7629 16.5997 35.3254 16.6372 34.9316 16.7997L34.6879 16.9184C33.9066 17.3622 33.5191 18.2122 33.5191 19.4684V21.7497L32.0879 20.9247L31.5254 20.5997V32.0184L33.9066 33.3934L40.0504 36.9372L41.5379 37.7934L43.4629 38.9059V27.4934L41.4754 26.3434ZM39.4879 25.1934L35.5066 22.8997V20.6184C35.5066 19.9684 35.7004 19.5372 36.0816 19.3184C36.4629 19.0997 36.9316 19.1559 37.4941 19.4809C37.7004 19.5997 37.8879 19.7372 38.0691 19.8997C38.3879 20.1809 38.6691 20.5372 38.9129 20.9559C38.9504 21.0184 38.9816 21.0809 39.0129 21.1434C39.3316 21.7372 39.4879 22.3309 39.4879 22.9122V25.1934Z" fill="url(#paint2_linear_145_13331)" stroke="#A1A1A1" stroke-width="0.625"/>
<path d="M39.0126 21.1435L35.5063 22.8998V20.6185C35.5063 19.9685 35.7001 19.5373 36.0813 19.3185C36.4626 19.0998 36.9313 19.156 37.4938 19.481C37.7001 19.5998 37.8876 19.7373 38.0688 19.8998C38.3876 20.181 38.6688 20.5373 38.9126 20.956C38.9501 21.0185 38.9813 21.081 39.0126 21.1435Z" stroke="#A1A1A1" stroke-width="0.625"/>
<path d="M39.4876 22.9123V25.1936L35.5063 22.8998L39.0126 21.1436C39.3313 21.7373 39.4876 22.3311 39.4876 22.9123Z" stroke="#A1A1A1" stroke-width="0.625"/>
<path d="M53.9751 37.2186V38.3561C53.9751 41.4811 53.4501 44.1248 52.4063 46.2998C51.3626 48.4748 49.9376 50.0748 48.1313 51.1061C47.8251 51.2811 47.5126 51.4373 47.1876 51.5748L35.6313 57.3561C37.4376 56.3248 38.8626 54.7248 39.9063 52.5498C39.9751 52.4061 40.0376 52.2623 40.0938 52.1186C41.0188 50.0311 41.4751 47.5248 41.4751 44.6061V43.4686C41.4751 43.1248 41.4438 42.7248 41.3751 42.2686L42.7313 41.5873L49.9001 38.0061L53.8751 36.0186C53.9438 36.4748 53.9751 36.8748 53.9751 37.2186Z" stroke="#A1A1A1" stroke-width="0.625"/>
<path d="M55.9621 21.2435L45.3621 26.5435L43.4621 27.4935L41.4746 26.3435L44.0246 25.0684L53.9746 20.0935L55.9621 21.2435Z" fill="url(#paint3_linear_145_13331)" stroke="#A1A1A1" stroke-width="0.625"/>
<path d="M53.9749 17.8123V20.0935L44.0249 25.0685L41.4749 26.3435V24.0623C41.4749 22.8873 41.1374 21.6748 40.4499 20.4248C40.4062 20.3373 40.3562 20.2498 40.3062 20.1623C40.0874 19.7873 39.8624 19.4436 39.6187 19.1248C39.3499 18.7686 39.0624 18.4435 38.7562 18.156C38.4687 17.881 38.1687 17.6373 37.8562 17.431C37.7374 17.3435 37.6187 17.2685 37.4937 17.1998C37.0437 16.9435 36.6249 16.7748 36.2312 16.6998C35.7624 16.5998 35.3249 16.6373 34.9312 16.7998L35.7187 16.406L40.0499 14.2373L47.1874 10.6686C47.9624 10.2248 48.8999 10.3185 49.9937 10.9498C51.0874 11.581 52.0249 12.5686 52.8062 13.9123C53.5874 15.2561 53.9749 16.556 53.9749 17.8123Z" fill="url(#paint4_linear_145_13331)" stroke="#A1A1A1" stroke-width="0.625"/>
<defs>
<linearGradient id="paint0_linear_145_13331" x1="21.5813" y1="58.662" x2="21.5813" y2="7.5885" gradientUnits="userSpaceOnUse">
<stop stop-color="#D98837"/>
<stop offset="1" stop-color="#F3993E"/>
</linearGradient>
<linearGradient id="paint1_linear_145_13331" x1="49.7129" y1="38.9062" x2="49.7129" y2="21.2437" gradientUnits="userSpaceOnUse">
<stop stop-color="#D98837"/>
<stop offset="1" stop-color="#F3993E"/>
</linearGradient>
<linearGradient id="paint2_linear_145_13331" x1="37.4941" y1="38.9059" x2="37.4941" y2="16.6445" gradientUnits="userSpaceOnUse">
<stop stop-color="#D98837"/>
<stop offset="1" stop-color="#F3993E"/>
</linearGradient>
<linearGradient id="paint3_linear_145_13331" x1="48.7184" y1="27.4935" x2="48.7184" y2="20.0935" gradientUnits="userSpaceOnUse">
<stop stop-color="#D98837"/>
<stop offset="1" stop-color="#F3993E"/>
</linearGradient>
<linearGradient id="paint4_linear_145_13331" x1="44.453" y1="26.3435" x2="44.453" y2="10.3938" gradientUnits="userSpaceOnUse">
<stop stop-color="#D98837"/>
<stop offset="1" stop-color="#F3993E"/>
</linearGradient>
</defs>
</svg>
