<svg width="48" height="60" viewBox="0 0 48 60" fill="none" xmlns="http://www.w3.org/2000/svg">
<g clip-path="url(#clip0_145_13300)">
<path d="M36.6067 36.9127C36.498 35.5142 36.2713 34.0922 35.9406 32.6465C35.9264 32.5709 35.9075 32.5001 35.8886 32.4292C35.7185 31.7064 35.5201 30.9835 35.2933 30.2512C34.613 28.0497 33.7532 25.9142 32.7185 23.8544C32.3736 23.1694 32.0098 22.489 31.6272 21.8229H31.6224C31.5847 21.7473 31.5421 21.6764 31.4996 21.6008C30.1106 19.2056 28.5091 16.9709 26.6949 14.9063C26.4209 14.5992 26.1469 14.2969 25.8681 13.9945C25.6508 13.7631 25.4335 13.5363 25.2162 13.3142C24.1201 12.1993 22.9862 11.1977 21.8193 10.3095C20.8886 9.60085 19.9343 8.96305 18.9516 8.39612C18.3894 8.07486 17.8366 7.7819 17.2933 7.52206C15.5736 6.70946 13.9343 6.21349 12.3705 6.04342C12.2571 6.02452 12.1437 6.01502 12.0303 6.00557C10.1925 5.85912 8.56261 6.10006 7.13584 6.73786L6.39883 7.10641C4.80198 8.01822 3.53584 9.44022 2.60513 11.382C1.67442 13.319 1.21143 15.6953 1.21143 18.5111C1.21143 21.3268 1.67442 24.2418 2.60513 27.256C3.53584 30.2749 4.80198 33.1568 6.39883 35.9111C7.99568 38.6654 9.87127 41.1977 12.0303 43.5127C14.1894 45.8276 16.4949 47.6939 18.9516 49.1112C19.5421 49.4513 20.1327 49.7537 20.7232 50.0088C21.3138 50.2639 21.9091 50.5285 22.4996 50.8025V46.6308C21.9091 46.3568 21.3138 46.0922 20.7232 45.8371C20.1327 45.5772 19.5421 45.2796 18.9516 44.9394C18.1815 43.2717 17.5154 41.6087 16.9532 39.9457C16.391 38.278 15.9327 36.615 15.5784 34.952L20.6618 37.8906L20.7232 37.9237V33.8512L15.7248 30.9647L14.7799 30.4213C14.7185 29.9205 14.6665 29.4245 14.6335 28.9331C14.6099 28.7111 14.5957 28.489 14.5815 28.267C14.539 27.5631 14.5154 26.8733 14.5154 26.193C14.5154 25.5127 14.539 24.8512 14.5815 24.1945C14.624 23.5426 14.6902 22.9048 14.7799 22.2764L22.339 26.6418L23.1185 27.0906C23.2083 27.8182 23.2744 28.5363 23.3169 29.2402C23.3642 29.9442 23.3831 30.6386 23.3831 31.3142C23.3831 31.7253 23.3784 32.1316 23.3595 32.5331C23.35 32.793 23.3358 33.0528 23.3169 33.3127C23.2839 33.856 23.2319 34.3899 23.1563 34.919C23.1469 35.0229 23.1327 35.1316 23.1185 35.2355L23.2933 35.3394L24.5028 36.0339L26.6665 37.2812C26.7138 36.96 26.7516 36.6386 26.7847 36.3127C26.8177 36.0008 26.8461 35.6843 26.865 35.3631C26.8791 35.1882 26.8886 35.0134 26.8933 34.8386C26.9217 34.352 26.9311 33.8607 26.9311 33.3646C26.9311 32.6843 26.9122 31.9945 26.865 31.2906C26.8555 31.1253 26.8461 30.9646 26.8272 30.7993C26.7894 30.2512 26.7374 29.6985 26.6665 29.141L28.2823 30.0717L30.1721 31.1631L32.6996 32.6228C32.7988 33.1378 32.8839 33.6434 32.9453 34.1394C32.9784 34.3804 33.0067 34.6166 33.0303 34.8481C33.1059 35.5709 33.1437 36.2701 33.1437 36.9505C33.1437 37.1158 33.1437 37.2859 33.1343 37.4512C33.1248 37.952 33.087 38.4386 33.0303 38.9205C32.9595 39.5583 32.8461 40.1725 32.6996 40.7631L35.4965 42.3788L36.3374 42.8654C36.4555 42.2512 36.5406 41.6276 36.602 40.9804C36.6634 40.3379 36.6917 39.6765 36.6917 38.9962C36.6917 38.3159 36.6634 37.6119 36.6067 36.9127ZM5.20355 24.889C5.05237 24.1237 4.94371 23.382 4.86812 22.6591C4.79253 21.941 4.75946 21.2371 4.75946 20.5615C4.75946 19.8859 4.79253 19.2245 4.86812 18.5914C4.94371 17.9536 5.05237 17.3394 5.20355 16.7442L11.2319 20.226C11.1516 20.793 11.0902 21.3741 11.0476 21.9646L11.0335 22.1489C10.991 22.8008 10.9673 23.467 10.9673 24.1473C10.9673 24.8276 10.991 25.5174 11.0335 26.2213C11.076 26.9253 11.1421 27.6386 11.2319 28.3709L5.20355 24.889ZM9.94686 36.152C8.64765 34.1631 7.56576 32.056 6.71064 29.8308L11.9406 32.8497C12.2099 34.2623 12.5406 35.6843 12.9421 37.1158C13.339 38.552 13.8067 40.0024 14.3358 41.4623C12.7106 39.9127 11.2461 38.141 9.94686 36.152ZM12.9421 13.4512C12.5406 14.4245 12.2099 15.4638 11.9406 16.5646L10.7453 15.8749L6.71064 13.5457C7.56576 12.3079 8.64765 11.4481 9.94686 10.9615C10.2492 10.8481 10.5563 10.7583 10.8776 10.6875C11.4681 10.5599 12.087 10.508 12.739 10.5316C13.2539 10.5458 13.7878 10.6071 14.3358 10.7205C13.8067 11.5662 13.339 12.478 12.9421 13.4512ZM20.4823 21.4969L15.5784 18.667C15.9327 17.4103 16.391 16.2764 16.9532 15.2606C17.2272 14.7646 17.5248 14.3016 17.8461 13.8623C18.1862 13.3993 18.5547 12.9694 18.9516 12.5725C19.3437 13.4276 19.7122 14.2828 20.0476 15.1379C20.1941 15.497 20.3311 15.856 20.4681 16.2197C20.5012 16.3048 20.5295 16.3898 20.5626 16.4749C20.6949 16.8386 20.8224 17.2024 20.9453 17.5662C21.5075 19.2292 21.9658 20.8922 22.3201 22.5599L20.4823 21.4969ZM25.9579 24.6575C25.6933 23.2497 25.3579 21.8277 24.961 20.3914C24.7248 19.5552 24.4744 18.7142 24.191 17.8686C23.9973 17.2638 23.7847 16.6591 23.5626 16.0497C24.3516 16.8056 25.1075 17.6087 25.8209 18.4686C26.5721 19.3709 27.2854 20.3347 27.9516 21.3552C28.3295 21.9316 28.6886 22.5221 29.0287 23.1221C29.865 24.582 30.5831 26.1032 31.1925 27.6812L25.9579 24.6575Z" fill="url(#paint0_linear_145_13300)" stroke="#A1A1A1" stroke-width="0.472441"/>
<path d="M14.3356 41.4622C12.7104 39.9126 11.2459 38.1409 9.94667 36.1519C8.64746 34.163 7.56557 32.0559 6.71045 29.8307L11.9404 32.8496C12.2097 34.2622 12.5404 35.6842 12.9419 37.1157C13.3388 38.5519 13.8065 40.0023 14.3356 41.4622Z" stroke="#A1A1A1" stroke-width="0.472441"/>
<path d="M22.3203 22.5601L20.4826 21.4971L15.5786 18.6671L20.4684 16.2198C20.5014 16.3049 20.5298 16.39 20.5629 16.475C20.6952 16.8388 20.8227 17.2025 20.9455 17.5663C21.5077 19.2293 21.966 20.8923 22.3203 22.5601Z" stroke="#A1A1A1" stroke-width="0.472441"/>
<path d="M20.4684 16.2198L15.5786 18.667C15.9329 17.4103 16.3912 16.2764 16.9534 15.2607C17.2274 14.7646 17.5251 14.3016 17.8463 13.8623C18.1865 13.3993 18.555 12.9694 18.9518 12.5725C19.344 13.4276 19.7125 14.2828 20.0479 15.1379C20.1944 15.497 20.3314 15.856 20.4684 16.2198Z" stroke="#A1A1A1" stroke-width="0.472441"/>
<path d="M31.1927 27.6812L25.958 24.6576L29.0289 23.1222C29.8651 24.582 30.5832 26.1033 31.1927 27.6812Z" stroke="#A1A1A1" stroke-width="0.472441"/>
<path d="M29.0286 23.122L25.9578 24.6574C25.6932 23.2496 25.3578 21.8275 24.9609 20.3913C24.7247 19.5551 24.4743 18.7141 24.1908 17.8685C23.9971 17.2637 23.7845 16.659 23.5625 16.0496C24.3515 16.8055 25.1074 17.6086 25.8208 18.4685C26.5719 19.3708 27.2853 20.3346 27.9515 21.3551C28.3294 21.9315 28.6885 22.522 29.0286 23.122Z" stroke="#A1A1A1" stroke-width="0.472441"/>
<path d="M28.2542 39.8936L26.0479 40.9945V41.3913L24.8857 41.9724L18.9518 44.9394C18.1818 43.2716 17.5156 41.6086 16.9534 39.9456C16.3912 38.2779 15.9329 36.6149 15.5786 34.9519L20.6621 37.8905L20.7235 37.9236L23.5534 36.511L23.681 36.4449L24.503 36.0338L26.6668 37.2811L27.0731 37.0779C27.4322 38.0133 27.829 38.9535 28.2542 39.8936Z" stroke="#A1A1A1" stroke-width="0.472441"/>
<path d="M32.9452 34.1395L27.0728 37.078L26.6665 37.2812C26.7137 36.9599 26.7515 36.6387 26.7846 36.3127C26.8177 36.0009 26.846 35.6843 26.8649 35.3631C26.8791 35.1883 26.8886 35.0135 26.8933 34.8387C26.9216 34.3521 26.9311 33.8607 26.9311 33.3647C26.9311 32.6843 26.9122 31.9946 26.8649 31.2906C26.8555 31.1253 26.846 30.9647 26.8271 30.7993C26.7893 30.2513 26.7374 29.6985 26.6665 29.141L28.2823 30.0717L30.172 31.1631L32.6996 32.6229C32.7988 33.1378 32.8838 33.6434 32.9452 34.1395Z" stroke="#A1A1A1" stroke-width="0.472441"/>
<path d="M24.5027 36.0338L23.6806 36.4448L23.5531 36.511L20.7231 37.9236V33.8511L21.0302 33.6999L22.5468 32.9393L23.3594 32.533C23.3499 32.7928 23.3357 33.0527 23.3168 33.3125C23.2838 33.8558 23.2318 34.3897 23.1562 34.9188C23.1468 35.0228 23.1326 35.1314 23.1184 35.2353L23.2932 35.3393L24.5027 36.0338Z" stroke="#A1A1A1" stroke-width="0.472441"/>
<path d="M23.3829 31.3142C23.3829 31.7252 23.3782 32.1315 23.3593 32.5331L22.5467 32.9394L21.0302 33.6999L20.7231 33.8512L15.7247 30.9646L14.7798 30.4213L15.2806 30.1709L17.8837 28.8716L20.4538 27.5866L22.3388 26.6417L23.1184 27.0905C23.2081 27.8181 23.2743 28.5362 23.3168 29.2401C23.364 29.9441 23.3829 30.6386 23.3829 31.3142Z" stroke="#A1A1A1" stroke-width="0.472441"/>
<path d="M22.3392 26.6416L20.4542 27.5865L17.8841 28.8715L15.281 30.1707L14.7802 30.4211C14.7188 29.9203 14.6668 29.4242 14.6337 28.9329C14.6101 28.7108 14.5959 28.4888 14.5818 28.2667C14.5392 27.5628 14.5156 26.873 14.5156 26.1927C14.5156 25.5124 14.5392 24.851 14.5818 24.1943C14.6243 23.5423 14.6904 22.9046 14.7802 22.2762L22.3392 26.6416Z" stroke="#A1A1A1" stroke-width="0.472441"/>
<path d="M12.7388 10.5314L10.7734 11.5141L6.71045 13.5455C7.56557 12.3077 8.64746 11.4479 9.94667 10.9613C10.249 10.8479 10.5562 10.7582 10.8774 10.6873C11.468 10.5598 12.0868 10.5078 12.7388 10.5314Z" stroke="#A1A1A1" stroke-width="0.472441"/>
<path d="M14.3356 10.7203C13.8065 11.566 13.3388 12.4778 12.9419 13.451C12.5404 14.4242 12.2097 15.4636 11.9404 16.5644L10.7451 15.8746L6.71045 13.5455L10.7734 11.514L12.7388 10.5314C13.2538 10.5455 13.7876 10.6069 14.3356 10.7203Z" stroke="#A1A1A1" stroke-width="0.472441"/>
<path d="M11.232 28.3708L5.20361 24.8889L11.0477 21.9692L11.0335 22.1488C10.991 22.8007 10.9674 23.4669 10.9674 24.1472C10.9674 24.8275 10.991 25.5173 11.0335 26.2212C11.0761 26.9251 11.1422 27.6385 11.232 28.3708Z" stroke="#A1A1A1" stroke-width="0.472441"/>
<path d="M11.2322 20.2259C11.1519 20.7928 11.0905 21.374 11.048 21.9645L5.20387 24.8889C5.05269 24.1235 4.94402 23.3818 4.86843 22.659C4.79284 21.9409 4.75977 21.237 4.75977 20.5614C4.75977 19.8858 4.79284 19.2243 4.86843 18.5913C4.94402 17.9535 5.05269 17.3393 5.20387 16.744L11.2322 20.2259Z" stroke="#A1A1A1" stroke-width="0.472441"/>
<path d="M26.0477 41.3912V44.859L22.4997 46.6306C21.9091 46.3566 21.3139 46.0921 20.7233 45.837C20.1328 45.5771 19.5422 45.2794 18.9517 44.9393L24.8855 41.9723L26.0477 41.3912Z" stroke="#A1A1A1" stroke-width="0.472441"/>
<path d="M46.7595 52.8529L44.2745 54.3175L34.8257 59.0419L37.3107 57.5773L44.1753 54.1474L46.7595 52.8529Z" stroke="#A1A1A1" stroke-width="0.472441"/>
<path d="M45.5167 42.0574V46.1298L43.4568 47.1597L40.8773 48.4493L39.0443 49.3658L38.6238 49.5784L36.0679 50.854V46.7818L39.0443 45.2936L41.6285 44.0038L41.7372 43.9471L45.5167 42.0574Z" stroke="#A1A1A1" stroke-width="0.472441"/>
<path d="M37.3104 57.5768L34.8253 59.0414L31.6316 53.528L29.5954 50.013V54.5438L26.0474 52.4981V40.9944L26.4159 41.2069L29.6332 43.0637L31.9482 44.4006L35.4962 46.451L36.0678 46.7818V50.854L32.0757 48.5485L34.2111 52.2335L37.3104 57.5768Z" fill="url(#paint1_linear_145_13300)" stroke="#A1A1A1" stroke-width="0.472441"/>
<path d="M46.7596 52.8524L44.1754 54.1469L37.3108 57.5769L34.2116 52.2335L32.0762 48.5485L36.0683 50.854L38.6242 49.5784L39.0447 49.3658L40.8777 48.4493L43.4573 47.1597L46.7596 52.8524Z" stroke="#A1A1A1" stroke-width="0.472441"/>
<path d="M31.6319 53.528L29.5957 54.5438V50.0131L31.6319 53.528Z" stroke="#A1A1A1" stroke-width="0.472441"/>
<path d="M26.0475 44.859V49.0308L22.4995 50.8025V46.6307L26.0475 44.859Z" stroke="#A1A1A1" stroke-width="0.472441"/>
<path d="M45.5171 42.0573L41.7376 43.9471L41.629 44.0038L39.0447 45.2936L36.0683 46.7818L35.4967 46.451L31.9486 44.4006L29.6337 43.0636L26.4164 41.2069L26.0479 40.9944L28.2541 39.8935L33.1345 37.451C33.125 37.9518 33.0872 38.4385 33.0305 38.9203C32.9597 39.5581 32.8463 40.1723 32.6998 40.7629L35.4967 42.3786L36.3376 42.8652L42.0069 40.0305L45.5171 42.0573Z" stroke="#A1A1A1" stroke-width="0.472441"/>
<path d="M46.141 34.2716C46.141 34.9519 46.1126 35.6133 46.0512 36.2559C45.9898 36.9031 45.9047 37.5267 45.7866 38.1409L36.3378 42.8653C36.4559 42.2511 36.541 41.6275 36.6024 40.9803C36.6638 40.3377 36.6921 39.6763 36.6921 38.996C36.6921 38.3157 36.6638 37.6118 36.6071 36.9125C36.4984 35.5141 36.2717 34.0921 35.941 32.6464C35.9268 32.5708 35.9079 32.5 35.889 32.4291C35.7189 31.7063 35.5205 30.9834 35.2937 30.2511C34.6134 28.0496 33.7536 25.9141 32.7189 23.8543C32.374 23.1692 32.0102 22.4889 31.6276 21.8227H31.6228C31.585 21.7471 31.5425 21.6763 31.5 21.6007C30.111 19.2055 28.5095 16.9708 26.6953 14.9062C26.4213 14.5991 26.1473 14.2968 25.8685 13.9944C25.6512 13.7629 25.4339 13.5361 25.2165 13.3141C24.1205 12.1991 22.9866 11.1975 21.8197 10.3094C20.889 9.60069 19.9347 8.96294 18.952 8.39601C18.3898 8.07475 17.837 7.78179 17.2937 7.52195C15.574 6.70935 13.9347 6.21334 12.3709 6.04326C12.2575 6.02436 12.1441 6.01491 12.0307 6.00546C10.1929 5.859 8.563 6.09995 7.13623 6.73774L15.848 2.38186C17.4449 1.47005 19.3205 1.10623 21.4795 1.28103C23.6386 1.46056 25.9441 2.25429 28.4008 3.67161C30.8528 5.08893 33.1583 6.95507 35.3173 9.27003C37.4764 11.585 39.352 14.122 40.9488 16.8763C42.5457 19.6259 43.8118 22.5125 44.7425 25.5267C45.6732 28.5409 46.141 31.4559 46.141 34.2716Z" stroke="#A1A1A1" stroke-width="0.472441"/>
</g>
<defs>
<linearGradient id="paint0_linear_145_13300" x1="18.9516" y1="50.8025" x2="18.9516" y2="5.96411" gradientUnits="userSpaceOnUse">
<stop stop-color="#D98837"/>
<stop offset="1" stop-color="#F3993E"/>
</linearGradient>
<linearGradient id="paint1_linear_145_13300" x1="31.6789" y1="59.0414" x2="31.6789" y2="40.9944" gradientUnits="userSpaceOnUse">
<stop stop-color="#D98837"/>
<stop offset="1" stop-color="#F3993E"/>
</linearGradient>
<clipPath id="clip0_145_13300">
<rect width="47.7165" height="60" fill="white" transform="translate(0.266602)"/>
</clipPath>
</defs>
</svg>
