<svg width="55" height="60" viewBox="0 0 55 60" fill="none" xmlns="http://www.w3.org/2000/svg">
<path d="M41.5749 42.71C41.4138 40.0933 40.9025 37.4044 40.0525 34.6433C38.997 31.2378 37.5692 27.9822 35.7692 24.8655C34.8303 23.2489 33.8081 21.7044 32.6969 20.2211C31.6747 18.8489 30.5748 17.5322 29.4026 16.2766C26.9637 13.6655 24.3581 11.5544 21.5858 9.95443C20.9525 9.59332 20.3304 9.25998 19.7193 8.97109C17.8859 8.09887 16.1304 7.55443 14.4526 7.32665C14.2193 7.29887 13.9971 7.27109 13.7693 7.25443C12.0137 7.10998 10.4192 7.28221 8.997 7.77665H8.98589C8.43589 7.97109 7.90823 8.20998 7.40823 8.49332C5.60265 9.52109 4.17475 11.1322 3.12475 13.3211C2.0692 15.5155 1.5415 18.1989 1.5415 21.3822C1.5415 24.5655 2.0692 27.8544 3.12475 31.26C4.17475 34.6655 5.60265 37.9266 7.40823 41.0378C9.20823 44.1489 11.3304 47.01 13.7693 49.6266C16.2082 52.2433 18.8136 54.3489 21.5858 55.9488C24.3581 57.5544 26.9637 58.4544 29.4026 58.6544C31.8414 58.8544 33.9637 58.4377 35.7692 57.4099C37.447 56.4544 38.797 54.9878 39.8303 53.0266C39.9081 52.8822 39.9803 52.7322 40.0525 52.5822C40.7025 51.2266 41.1526 49.6766 41.4026 47.9322C41.5526 46.8711 41.6303 45.7322 41.6303 44.5266C41.6303 43.9266 41.6138 43.3211 41.5749 42.71ZM27.747 53.5322C25.7803 53.31 23.7247 52.5878 21.5858 51.3544C17.1081 48.7655 13.3192 44.7933 10.2137 39.4378C7.10811 34.0766 5.5526 28.8322 5.5526 23.6933C5.5526 18.5544 7.10811 15.1044 10.2137 13.3322C11.0526 12.8544 11.9414 12.5378 12.8859 12.3766C14.2914 12.1378 15.8081 12.2544 17.4359 12.7266C18.747 13.1044 20.1303 13.7155 21.5858 14.5544V32.9544L25.6192 39.91L31.136 49.4266L32.9582 52.5711C31.4582 53.4266 29.7192 53.7489 27.747 53.5322Z" stroke="#A1A1A1" stroke-width="0.555556"/>
<path d="M32.9583 52.5712C31.4583 53.4267 29.7194 53.7489 27.7472 53.5323C25.7805 53.3101 23.7249 52.5878 21.586 51.3545C17.1082 48.7656 13.3193 44.7934 10.2138 39.4378C7.10822 34.0767 5.55273 28.8323 5.55273 23.6934C5.55273 18.5545 7.10822 15.1045 10.2138 13.3323C11.0527 12.8545 11.9416 12.5378 12.8861 12.3767C14.2916 12.1378 15.8082 12.2545 17.436 12.7267C16.9193 14.2545 16.6638 16.0601 16.6638 18.1378C16.6638 23.2767 18.2193 28.5212 21.3249 33.8823C22.6304 36.1378 24.0582 38.149 25.6193 39.9101L31.1361 49.4267L32.9583 52.5712Z" stroke="#A1A1A1" stroke-width="0.555556"/>
<path d="M52.7415 38.9712C52.7415 42.1489 52.2137 44.8378 51.1637 47.0267C50.1081 49.2156 48.6804 50.8268 46.8804 51.8546L35.7693 57.4101C37.4471 56.4545 38.7971 54.9879 39.8304 53.0268C39.9082 52.8823 39.9803 52.7323 40.0526 52.5823C40.7026 51.2267 41.1527 49.6767 41.4027 47.9323C41.5527 46.8712 41.6304 45.7323 41.6304 44.5267C41.6304 43.9267 41.6138 43.3212 41.575 42.7101C41.4138 40.0934 40.9026 37.4045 40.0526 34.6434C38.997 31.2378 37.5693 27.9823 35.7693 24.8656C34.8304 23.2489 33.8081 21.7045 32.697 20.2212C31.6748 18.8489 30.5748 17.5323 29.4026 16.2767C26.9637 13.6656 24.3581 11.5545 21.5859 9.9545C20.9526 9.59339 20.3305 9.26005 19.7193 8.97116C17.886 8.09894 16.1305 7.5545 14.4527 7.32672C14.2193 7.29894 13.9971 7.27116 13.7693 7.2545C12.0138 7.11005 10.4193 7.28227 8.99707 7.77672L18.5194 2.93786C20.3194 1.91008 22.4416 1.49897 24.8805 1.69897C27.3193 1.89897 29.9248 2.79897 32.697 4.39897C35.4692 5.99894 38.0748 8.11005 40.5137 10.7212C42.9526 13.3378 45.0748 16.1989 46.8804 19.3101C48.6804 22.4267 50.1081 25.6823 51.1637 29.0878C52.2137 32.4934 52.7415 35.7878 52.7415 38.9712Z" fill="url(#paint0_linear_145_13326)" stroke="#A1A1A1" stroke-width="0.555556"/>
<defs>
<linearGradient id="paint0_linear_145_13326" x1="30.8693" y1="57.4101" x2="30.8693" y2="1.6499" gradientUnits="userSpaceOnUse">
<stop stop-color="#D98837"/>
<stop offset="1" stop-color="#F3993E"/>
</linearGradient>
</defs>
</svg>
