<svg width="24" height="24" viewBox="0 0 24 24" fill="none" xmlns="http://www.w3.org/2000/svg">
<rect width="24" height="24" rx="12" fill="#8247E5"/>
<path d="M16.7045 8.87164C16.3702 8.6806 15.9403 8.6806 15.5582 8.87164L12.8836 10.4478L11.0687 11.4507L8.44182 13.0269C8.10749 13.2179 7.67764 13.2179 7.29555 13.0269L5.24182 11.7851C4.90749 11.594 4.66869 11.2119 4.66869 10.7821V8.39403C4.66869 8.01194 4.85973 7.62985 5.24182 7.39105L7.29555 6.19702C7.62988 6.00597 8.05973 6.00597 8.44182 6.19702L10.4956 7.43881C10.8299 7.62985 11.0687 8.01194 11.0687 8.44179V10.0179L12.8836 8.96717V7.34328C12.8836 6.96119 12.6926 6.57911 12.3105 6.3403L8.48958 4.09552C8.15525 3.90448 7.7254 3.90448 7.34331 4.09552L3.42689 6.38806C3.0448 6.57911 2.85376 6.96119 2.85376 7.34328V11.8328C2.85376 12.2149 3.0448 12.597 3.42689 12.8358L7.29555 15.0806C7.62988 15.2716 8.05973 15.2716 8.44182 15.0806L11.0687 13.5522L12.8836 12.5015L15.5105 10.9731C15.8448 10.7821 16.2747 10.7821 16.6567 10.9731L18.7105 12.1672C19.0448 12.3582 19.2836 12.7403 19.2836 13.1702V15.5582C19.2836 15.9403 19.0926 16.3224 18.7105 16.5612L16.7045 17.7552C16.3702 17.9463 15.9403 17.9463 15.5582 17.7552L13.5045 16.5612C13.1702 16.3701 12.9314 15.9881 12.9314 15.5582V14.0299L11.1164 15.0806V16.6567C11.1164 17.0388 11.3075 17.4209 11.6896 17.6597L15.5582 19.9045C15.8926 20.0955 16.3224 20.0955 16.7045 19.9045L20.5732 17.6597C20.9075 17.4687 21.1463 17.0866 21.1463 16.6567V12.1194C21.1463 11.7373 20.9553 11.3552 20.5732 11.1164L16.7045 8.87164Z" fill="white"/>
</svg>
