<svg width="24" height="24" viewBox="0 0 24 24" fill="none" xmlns="http://www.w3.org/2000/svg">
<rect width="24" height="24" rx="4" fill="#FBE5CF"/>
<path d="M20.6479 2.67432L13.1526 8.24117L14.5387 4.9568L20.6479 2.67432Z" fill="#E2761B" stroke="#E2761B" stroke-width="0.0753296" stroke-linecap="round" stroke-linejoin="round"/>
<path d="M3.34467 2.67432L10.7797 8.2939L9.46143 4.9568L3.34467 2.67432ZM17.9511 15.5783L15.9548 18.6367L20.226 19.8118L21.4539 15.6461L17.9511 15.5783ZM2.55371 15.6461L3.77405 19.8118L8.04524 18.6367L6.049 15.5783L2.55371 15.6461Z" fill="#E4761B" stroke="#E4761B" stroke-width="0.0753296" stroke-linecap="round" stroke-linejoin="round"/>
<path d="M7.8041 10.4105L6.61389 12.2109L10.8549 12.3992L10.7043 7.84179L7.8041 10.4105ZM16.1883 10.4105L13.2504 7.78906L13.1525 12.3992L17.386 12.2109L16.1883 10.4105ZM8.04515 18.6365L10.5913 17.3936L8.39167 15.6761L8.04515 18.6365ZM13.4011 17.3936L15.9548 18.6365L15.6007 15.6761L13.4011 17.3936Z" fill="#E4761B" stroke="#E4761B" stroke-width="0.0753296" stroke-linecap="round" stroke-linejoin="round"/>
<path d="M15.9548 18.6365L13.4011 17.3936L13.6045 19.0583L13.5819 19.7589L15.9548 18.6365ZM8.04517 18.6365L10.418 19.7589L10.403 19.0583L10.5913 17.3936L8.04517 18.6365Z" fill="#D7C1B3" stroke="#D7C1B3" stroke-width="0.0753296" stroke-linecap="round" stroke-linejoin="round"/>
<path d="M10.4557 14.5764L8.33142 13.9511L9.83048 13.2656L10.4557 14.5764ZM13.5367 14.5764L14.1619 13.2656L15.6685 13.9511L13.5367 14.5764Z" fill="#233447" stroke="#233447" stroke-width="0.0753296" stroke-linecap="round" stroke-linejoin="round"/>
<path d="M8.04518 18.6365L8.40677 15.5782L6.04895 15.646L8.04518 18.6365ZM15.5932 15.5782L15.9548 18.6365L17.951 15.646L15.5932 15.5782ZM17.386 12.2109L13.1525 12.3993L13.5442 14.5763L14.1695 13.2656L15.6761 13.951L17.386 12.2109ZM8.33144 13.951L9.83803 13.2656L10.4557 14.5763L10.855 12.3993L6.61392 12.2109L8.33144 13.951Z" fill="#CD6116" stroke="#CD6116" stroke-width="0.0753296" stroke-linecap="round" stroke-linejoin="round"/>
<path d="M6.61389 12.2109L8.39167 15.6761L8.33141 13.951L6.61389 12.2109ZM15.676 13.951L15.6007 15.6761L17.386 12.2109L15.676 13.951ZM10.8549 12.3993L10.4557 14.5763L10.9529 17.145L11.0659 13.7627L10.8549 12.3993ZM13.1525 12.3993L12.9491 13.7552L13.0395 17.145L13.5442 14.5763L13.1525 12.3993Z" fill="#E4751F" stroke="#E4751F" stroke-width="0.0753296" stroke-linecap="round" stroke-linejoin="round"/>
<path d="M13.5442 14.5764L13.0395 17.1451L13.4011 17.3937L15.6007 15.6762L15.6761 13.9512L13.5442 14.5764ZM8.33142 13.9512L8.39168 15.6762L10.5913 17.3937L10.9529 17.1451L10.4557 14.5764L8.33142 13.9512Z" fill="#F6851B" stroke="#F6851B" stroke-width="0.0753296" stroke-linecap="round" stroke-linejoin="round"/>
<path d="M13.5819 19.7589L13.6045 19.0583L13.4162 18.8926H10.5762L10.403 19.0583L10.418 19.7589L8.04517 18.6365L8.87379 19.3144L10.5536 20.482H13.4388L15.1261 19.3144L15.9548 18.6365L13.5819 19.7589Z" fill="#C0AD9E" stroke="#C0AD9E" stroke-width="0.0753296" stroke-linecap="round" stroke-linejoin="round"/>
<path d="M13.4011 17.3936L13.0395 17.145H10.9529L10.5913 17.3936L10.403 19.0584L10.5762 18.8927H13.4161L13.6045 19.0584L13.4011 17.3936Z" fill="#161616" stroke="#161616" stroke-width="0.0753296" stroke-linecap="round" stroke-linejoin="round"/>
<path d="M20.9642 8.60275L21.6045 5.52931L20.6479 2.67432L13.4012 8.05285L16.1884 10.4107L20.1281 11.5632L21.0019 10.5463L20.6253 10.2751L21.2279 9.72516L20.7609 9.36358L21.3635 8.90407L20.9642 8.60275ZM2.39551 5.52931L3.03581 8.60275L2.62903 8.90407L3.23167 9.36358L2.77216 9.72516L3.37479 10.2751L2.99814 10.5463L3.86443 11.5632L7.80417 10.4107L10.5914 8.05285L3.34466 2.67432L2.39551 5.52931Z" fill="#763D16" stroke="#763D16" stroke-width="0.0753296" stroke-linecap="round" stroke-linejoin="round"/>
<path d="M20.1281 11.5632L16.1884 10.4106L17.3861 12.211L15.6008 15.6762L17.9511 15.6461H21.4539L20.1281 11.5632ZM7.80418 10.4106L3.86445 11.5632L2.55371 15.6461H6.049L8.39175 15.6762L6.61397 12.211L7.80418 10.4106ZM13.1526 12.3993L13.4012 8.05283L14.5462 4.95679H9.46143L10.5914 8.05283L10.855 12.3993L10.9454 13.7703L10.953 17.1451H13.0396L13.0547 13.7703L13.1526 12.3993Z" fill="#F6851B" stroke="#F6851B" stroke-width="0.0753296" stroke-linecap="round" stroke-linejoin="round"/>
</svg>
