<svg width="24" height="25" viewBox="0 0 24 25" fill="none" xmlns="http://www.w3.org/2000/svg">
<path d="M11.982 21.3542C9.58398 21.3592 7.33698 20.9112 5.42798 19.7482C6.37598 16.7492 8.94798 15.3612 11.982 15.3692C15.012 15.3612 17.588 16.7532 18.535 19.7482C17.516 20.3692 16.401 20.7862 15.218 21.0392" stroke="#F7F5EF" stroke-width="1.5" stroke-linecap="square"/>
<path d="M6.59476 14.5191C4.46976 14.5141 2.66376 15.4891 1.99976 17.5891C2.36276 17.8101 2.74176 17.9941 3.13676 18.1451" stroke="#F7F5EF" stroke-width="1.5" stroke-linecap="square"/>
<path d="M17.406 14.5191C19.53 14.5141 21.336 15.4891 22 17.5891C21.611 17.8271 21.201 18.0211 20.775 18.1781" stroke="#F7F5EF" stroke-width="1.5" stroke-linecap="square"/>
<path d="M12.7326 4.2041C14.6466 4.5491 16.0986 6.2241 16.0986 8.2371C16.0986 10.5011 14.2636 12.3361 11.9996 12.3361C9.73661 12.3361 7.90161 10.5011 7.90161 8.2371C7.90161 6.9881 8.46061 5.8691 9.34261 5.1171" stroke="#F7F5EF" stroke-width="1.5" stroke-linecap="square"/>
<path d="M17.406 6.646C18.996 6.646 20.286 7.935 20.286 9.526C20.286 11.116 18.996 12.406 17.406 12.406" stroke="#F7F5EF" stroke-width="1.5" stroke-linecap="square"/>
<path d="M6.59509 6.646C5.00409 6.646 3.71509 7.935 3.71509 9.526C3.71509 11.116 5.00409 12.406 6.59509 12.406" stroke="#F7F5EF" stroke-width="1.5" stroke-linecap="square"/>
</svg>
