<svg width="24" height="24" viewBox="0 0 24 24" fill="none" xmlns="http://www.w3.org/2000/svg">
<path d="M4.367 20C6.919 20 8.837 17.868 9.981 16.183C9.84449 16.535 9.77136 16.9085 9.765 17.286C9.765 18.27 10.353 18.971 11.513 18.971C13.106 18.971 14.807 17.629 15.689 16.183C15.6295 16.371 15.5982 16.5668 15.596 16.764C15.596 17.45 15.998 17.883 16.818 17.883C19.401 17.883 22 13.483 22 9.637C22 6.639 20.422 4 16.462 4C9.502 4 2 12.172 2 17.45C2 19.523 3.16 20 4.367 20ZM14.065 9.308C14.065 8.563 14.498 8.041 15.132 8.041C15.751 8.041 16.184 8.563 16.184 9.308C16.184 10.054 15.751 10.591 15.132 10.591C14.498 10.591 14.065 10.054 14.065 9.308ZM17.375 9.308C17.375 8.563 17.808 8.041 18.442 8.041C19.062 8.041 19.494 8.563 19.494 9.308C19.494 10.054 19.061 10.591 18.442 10.591C17.808 10.591 17.375 10.054 17.375 9.308Z" fill="#AB9FF2"/>
</svg>
