<svg width="24" height="24" viewBox="0 0 24 24" fill="none" xmlns="http://www.w3.org/2000/svg">
<g clip-path="url(#clip0_125_12198)">
<path d="M12 24C18.65 24 24 18.65 24 12C24 5.34996 18.65 0 12 0C5.34996 0 0 5.34996 0 12C0 18.65 5.34996 24 12 24Z" fill="#2775CA"/>
<path d="M15.3001 13.8999C15.3001 12.1499 14.2501 11.5499 12.1501 11.3C10.6501 11.0999 10.3501 10.7 10.3501 9.9999C10.3501 9.29982 10.8501 8.84994 11.8501 8.84994C12.7501 8.84994 13.2501 9.14994 13.5001 9.89994C13.5501 10.0499 13.7001 10.1499 13.8501 10.1499H14.65C14.8501 10.1499 15.0001 9.9999 15.0001 9.79998V9.74994C14.8 8.6499 13.9 7.79994 12.7501 7.69998V6.49998C12.7501 6.29994 12.6001 6.14994 12.3501 6.0999H11.6001C11.4001 6.0999 11.2501 6.2499 11.2 6.49998V7.64994C9.70002 7.84998 8.7501 8.84994 8.7501 10.1C8.7501 11.75 9.75006 12.3999 11.8501 12.65C13.2501 12.8999 13.7001 13.1999 13.7001 14C13.7001 14.8 13 15.35 12.0501 15.35C10.75 15.35 10.3 14.7999 10.15 14.0499C10.1001 13.85 9.9501 13.7499 9.8001 13.7499H8.95002C8.7501 13.7499 8.6001 13.8999 8.6001 14.0999V14.15C8.80002 15.3999 9.60006 16.2999 11.2501 16.55V17.75C11.2501 17.9499 11.4001 18.0999 11.65 18.1499H12.4C12.6001 18.1499 12.7501 17.9999 12.8001 17.75V16.55C14.3001 16.2999 15.3001 15.2499 15.3001 13.8999Z" fill="white"/>
<path d="M9.45 19.1499C5.55 17.75 3.54996 13.4 5.00004 9.5499C5.75004 7.4499 7.40004 5.84994 9.45 5.09994C9.65004 4.99998 9.75 4.84998 9.75 4.5999V3.89994C9.75 3.6999 9.65004 3.5499 9.45 3.49998C9.39996 3.49998 9.3 3.49998 9.24996 3.5499C4.5 5.0499 1.89996 10.1 3.39996 14.8499C4.29996 17.6499 6.45 19.7999 9.24996 20.6999C9.45 20.7999 9.65004 20.6999 9.69996 20.4999C9.75 20.45 9.75 20.3999 9.75 20.3V19.5999C9.75 19.4499 9.6 19.25 9.45 19.1499ZM14.75 3.5499C14.55 3.44994 14.35 3.5499 14.3 3.74994C14.25 3.79998 14.25 3.8499 14.25 3.94998V4.64994C14.25 4.84998 14.4 5.0499 14.55 5.14998C18.45 6.5499 20.45 10.8999 19 14.75C18.25 16.85 16.6 18.4499 14.55 19.1999C14.35 19.2999 14.25 19.4499 14.25 19.7V20.3999C14.25 20.6 14.35 20.75 14.55 20.7999C14.6 20.7999 14.7 20.7999 14.75 20.75C19.5 19.25 22.1 14.1999 20.6 9.44994C19.7 6.59994 17.5 4.4499 14.75 3.5499Z" fill="white"/>
</g>
<defs>
<clipPath id="clip0_125_12198">
<rect width="24" height="24" fill="white"/>
</clipPath>
</defs>
</svg>
