<svg width="109" height="32" viewBox="0 0 109 32" fill="none" xmlns="http://www.w3.org/2000/svg">
<path fill-rule="evenodd" clip-rule="evenodd" d="M3.17827 24.7353V12.8957C3.24205 13.0567 3.34342 13.2071 3.4854 13.3364C4.29493 14.0735 5.25702 14.6305 6.30937 14.9628C7.84141 15.4466 9.48607 15.4294 11.0076 14.9136C12.5291 14.3979 13.8493 13.41 14.7789 12.0918C15.7086 10.7735 16.1999 9.19246 16.1825 7.57535C16.1651 5.95825 15.6398 4.38811 14.682 3.09005C13.7242 1.79198 12.383 0.832641 10.8507 0.349572C9.31848 -0.133497 7.67382 -0.115491 6.15256 0.40101C5.10764 0.75578 4.1578 1.33322 3.36436 2.08741C3.18749 2.25553 3.07692 2.45632 3.02601 2.66839C2.61451 1.38992 1.41528 0.464858 0 0.464858V21.557C0 23.3123 1.42296 24.7353 3.17827 24.7353ZM3.68452 11.3192C3.44514 11.4982 3.27262 11.7364 3.17827 11.9941V3.64313L3.17824 3.62816C3.28153 3.80809 3.42602 3.97073 3.60673 4.09992C4.29089 4.58905 5.23379 4.39914 5.91589 3.90713C6.2819 3.64312 6.68682 3.43333 7.11869 3.2867C8.03493 2.97562 9.02549 2.96477 9.94835 3.25572C10.8712 3.54667 11.679 4.12446 12.2559 4.90627C12.8328 5.68808 13.1491 6.63376 13.1596 7.60772C13.1701 8.58168 12.8742 9.53391 12.3143 10.3279C11.7544 11.1219 10.9592 11.7168 10.0428 12.0275C9.12643 12.3381 8.13587 12.3485 7.21314 12.0571C6.77813 11.9197 6.36872 11.7186 5.99706 11.4624C5.30464 10.9852 4.35798 10.8156 3.68452 11.3192Z" fill="url(#paint0_linear_146_13398)"/>
<path fill-rule="evenodd" clip-rule="evenodd" d="M18.716 23.3828C19.7269 24.2704 20.9843 24.7142 22.4883 24.7142C23.6225 24.7142 24.6827 24.4554 25.6689 23.9376C26.6798 23.4198 27.6044 22.8158 28.4426 22.1254H28.5536L28.8125 24.2704H31.3274V13.2493C31.3274 11.0057 30.8343 9.21814 29.848 7.88674C28.8618 6.53067 27.2715 5.85264 25.0771 5.85264C23.6471 5.85264 22.3157 6.11153 21.0829 6.6293C19.8748 7.12241 18.8516 7.64018 18.0133 8.1826L19.1968 10.2907C19.9118 9.79755 20.7254 9.35375 21.6377 8.95926C22.5499 8.56477 23.5238 8.36752 24.5594 8.36752C25.5456 8.36752 26.2976 8.58943 26.8154 9.03323C27.3578 9.45237 27.7276 10.0071 27.9249 10.6975C28.1468 11.3878 28.2577 12.1152 28.2577 12.8795C24.4361 13.2987 21.6377 14.0383 19.8625 15.0985C18.1119 16.1341 17.2366 17.6381 17.2366 19.6105C17.2366 21.2131 17.7298 22.4706 18.716 23.3828ZM25.8168 21.6446C25.0525 22.0638 24.2389 22.2733 23.3759 22.2733C22.4883 22.2733 21.7363 22.0514 21.1199 21.6076C20.5035 21.1392 20.1953 20.3995 20.1953 19.3886C20.1953 18.2298 20.7871 17.2806 21.9705 16.5409C23.1787 15.8012 25.2744 15.2465 28.2577 14.8766V19.8694C27.3948 20.6337 26.5811 21.2255 25.8168 21.6446Z" fill="url(#paint1_linear_146_13398)"/>
<path d="M34.2826 31.8891C34.6524 31.963 35.0346 32 35.4291 32C36.6372 32 37.6604 31.7165 38.4987 31.1494C39.3616 30.607 40.0767 29.8673 40.6437 28.9304C41.2355 27.9935 41.7409 26.9333 42.1601 25.7498L48.9281 6.29645H45.9694L42.7518 16.245C42.5053 17.034 42.2587 17.8723 42.0121 18.7599C41.7656 19.6475 41.5067 20.4981 41.2355 21.3118H41.0875C40.8163 20.4735 40.5205 19.6105 40.1999 18.7229C39.9041 17.8353 39.6205 17.0093 39.3493 16.245L35.688 6.29645H32.5444L39.7561 24.3074L39.3493 25.6388C38.9795 26.7483 38.4617 27.6606 37.796 28.3756C37.1303 29.1153 36.292 29.4851 35.2811 29.4851C35.0592 29.4851 34.825 29.4481 34.5784 29.3742C34.3319 29.3249 34.11 29.2755 33.9127 29.2262L33.321 31.6302C33.6169 31.7288 33.9374 31.8151 34.2826 31.8891Z" fill="url(#paint2_linear_146_13398)"/>
<path d="M50.5478 6.29645V24.2704H53.5805V12.7316C54.1969 11.2029 54.9119 10.1304 55.7255 9.51401C56.5638 8.89762 57.3651 8.58942 58.1294 8.58942C58.4993 8.58942 58.8075 8.61408 59.054 8.66339C59.3006 8.7127 59.5718 8.78667 59.8677 8.88529L60.4594 6.22248C59.8923 5.97592 59.2513 5.85264 58.5363 5.85264C57.5254 5.85264 56.5761 6.18549 55.6885 6.8512C54.8009 7.5169 54.0489 8.41683 53.4325 9.551H53.3216L53.0627 6.29645H50.5478Z" fill="url(#paint3_linear_146_13398)"/>
<path fill-rule="evenodd" clip-rule="evenodd" d="M64.0436 23.6047C65.3257 24.3444 66.6941 24.7142 68.1488 24.7142C69.6281 24.7142 70.9965 24.3444 72.254 23.6047C73.5114 22.8651 74.5223 21.7925 75.2866 20.3872C76.0756 18.9818 76.4701 17.2929 76.4701 15.3204C76.4701 13.2987 76.0756 11.5851 75.2866 10.1797C74.5223 8.77434 73.5114 7.70182 72.254 6.96215C70.9965 6.22248 69.6281 5.85264 68.1488 5.85264C66.6941 5.85264 65.3257 6.22248 64.0436 6.96215C62.7862 7.70182 61.763 8.77434 60.974 10.1797C60.2097 11.5851 59.8275 13.2987 59.8275 15.3204C59.8275 17.2929 60.2097 18.9818 60.974 20.3872C61.763 21.7925 62.7862 22.8651 64.0436 23.6047ZM71.8841 20.3132C70.9472 21.5706 69.7021 22.1994 68.1488 22.1994C66.6202 22.1994 65.375 21.5706 64.4135 20.3132C63.4519 19.0311 62.9711 17.3668 62.9711 15.3204C62.9711 13.2493 63.4519 11.5728 64.4135 10.2907C65.375 9.00857 66.6202 8.36752 68.1488 8.36752C69.7021 8.36752 70.9472 9.00857 71.8841 10.2907C72.8457 11.5728 73.3265 13.2493 73.3265 15.3204C73.3265 17.3668 72.8457 19.0311 71.8841 20.3132Z" fill="url(#paint4_linear_146_13398)"/>
<path d="M80.427 22.939C81.3147 24.1225 82.7077 24.7142 84.6062 24.7142C85.839 24.7142 86.9238 24.4184 87.8607 23.8266C88.7977 23.2349 89.6853 22.4459 90.5236 21.4597H90.6345L90.8934 24.2704H93.4083V6.29645H90.3756V19.0558C89.5373 20.116 88.7483 20.8926 88.0087 21.3857C87.2937 21.8542 86.4677 22.0884 85.5308 22.0884C84.3473 22.0884 83.4844 21.7063 82.9419 20.9419C82.4242 20.1776 82.1653 18.9571 82.1653 17.2806V6.29645H79.0956V17.6874C79.0956 19.9804 79.5394 21.7309 80.427 22.939Z" fill="url(#paint5_linear_146_13398)"/>
<path d="M98.6579 24.0116C99.8167 24.48 101.037 24.7142 102.319 24.7142C103.749 24.7142 104.945 24.4677 105.907 23.9746C106.893 23.4815 107.633 22.8281 108.126 22.0144C108.643 21.2008 108.902 20.3132 108.902 19.3516C108.902 18.2175 108.619 17.3175 108.052 16.6518C107.509 15.9615 106.819 15.4191 105.981 15.0246C105.142 14.6054 104.292 14.2356 103.429 13.9151C102.763 13.6438 102.134 13.385 101.543 13.1384C100.951 12.8672 100.47 12.559 100.1 12.2138C99.7304 11.844 99.5455 11.3755 99.5455 10.8084C99.5455 10.1181 99.8044 9.51401 100.322 8.99624C100.865 8.47847 101.703 8.21959 102.837 8.21959C103.626 8.21959 104.353 8.36752 105.019 8.66339C105.685 8.95926 106.326 9.34142 106.942 9.80988L108.422 7.88674C107.731 7.31966 106.905 6.83887 105.944 6.44438C104.982 6.04989 103.947 5.85264 102.837 5.85264C100.889 5.85264 99.3606 6.34576 98.2511 7.33198C97.1662 8.29356 96.6238 9.50169 96.6238 10.9564C96.6238 11.9673 96.8827 12.8055 97.4005 13.4713C97.9182 14.1123 98.5839 14.6424 99.3976 15.0615C100.211 15.456 101.037 15.8135 101.875 16.1341C102.541 16.3806 103.182 16.6518 103.799 16.9477C104.44 17.2189 104.957 17.5641 105.352 17.9832C105.771 18.4024 105.981 18.9202 105.981 19.5366C105.981 20.3009 105.685 20.9666 105.093 21.5337C104.501 22.0761 103.614 22.3473 102.43 22.3473C101.37 22.3473 100.421 22.1501 99.5825 21.7556C98.7442 21.3364 97.9306 20.8186 97.1416 20.2023L95.6253 22.2363C96.4882 22.9267 97.4991 23.5184 98.6579 24.0116Z" fill="url(#paint6_linear_146_13398)"/>
<defs>
<linearGradient id="paint0_linear_146_13398" x1="54.4512" y1="0" x2="54.4512" y2="32" gradientUnits="userSpaceOnUse">
<stop stop-color="#F3993E"/>
<stop offset="0.425" stop-color="#E39240"/>
<stop offset="1" stop-color="#304251"/>
</linearGradient>
<linearGradient id="paint1_linear_146_13398" x1="54.4512" y1="0" x2="54.4512" y2="32" gradientUnits="userSpaceOnUse">
<stop stop-color="#F3993E"/>
<stop offset="0.425" stop-color="#E39240"/>
<stop offset="1" stop-color="#304251"/>
</linearGradient>
<linearGradient id="paint2_linear_146_13398" x1="54.4512" y1="0" x2="54.4512" y2="32" gradientUnits="userSpaceOnUse">
<stop stop-color="#F3993E"/>
<stop offset="0.425" stop-color="#E39240"/>
<stop offset="1" stop-color="#304251"/>
</linearGradient>
<linearGradient id="paint3_linear_146_13398" x1="54.4512" y1="0" x2="54.4512" y2="32" gradientUnits="userSpaceOnUse">
<stop stop-color="#F3993E"/>
<stop offset="0.425" stop-color="#E39240"/>
<stop offset="1" stop-color="#304251"/>
</linearGradient>
<linearGradient id="paint4_linear_146_13398" x1="54.4512" y1="0" x2="54.4512" y2="32" gradientUnits="userSpaceOnUse">
<stop stop-color="#F3993E"/>
<stop offset="0.425" stop-color="#E39240"/>
<stop offset="1" stop-color="#304251"/>
</linearGradient>
<linearGradient id="paint5_linear_146_13398" x1="54.4512" y1="0" x2="54.4512" y2="32" gradientUnits="userSpaceOnUse">
<stop stop-color="#F3993E"/>
<stop offset="0.425" stop-color="#E39240"/>
<stop offset="1" stop-color="#304251"/>
</linearGradient>
<linearGradient id="paint6_linear_146_13398" x1="54.4512" y1="0" x2="54.4512" y2="32" gradientUnits="userSpaceOnUse">
<stop stop-color="#F3993E"/>
<stop offset="0.425" stop-color="#E39240"/>
<stop offset="1" stop-color="#304251"/>
</linearGradient>
</defs>
</svg>
